<?xml version="1.0" encoding="utf-8"?>
<!-- Generator: Adobe Illustrator 22.1.0, SVG Export Plug-In . SVG Version: 6.00 Build 0)  -->
<svg version="1.1" id="Layer_1" xmlns="http://www.w3.org/2000/svg" xmlns:xlink="http://www.w3.org/1999/xlink" x="0px" y="0px"
	 viewBox="0 0 220 56" style="enable-background:new 0 0 220 56;" xml:space="preserve">
<style type="text/css">
	.st0{fill:#06D6A9;}
</style>
<path class="st0" d="M200.9,13.4c0-1.7-1.5-3.1-3.1-3.1c-1.7,0-3.1,1.4-3.1,3.1c0,1.7,1.5,3.1,3.1,3.1
	C199.4,16.5,200.9,15.2,200.9,13.4z M200.3,19.6h-5v22.1h5V19.6z M175.5,22.1c-1.2-1.7-3.4-2.9-5.9-2.9c-2.5,0-4.5,0.9-5.6,2.3v-1.8
	h-5v22.1h5V26.9c0.5-2.2,2.2-3.3,4-3.3c2.5,0,3.7,1.8,3.7,4.5v13.6h5V26.9c0.5-2.2,2.2-3.3,4-3.3c2.5,0,3.7,1.8,3.7,4.5v13.6h5V27.4
	c0-5-2.7-8.2-7.2-8.2C179.1,19.2,177,20.3,175.5,22.1z M144.9,23.4c-2.8,0-4.8,1.7-5.4,4.9h10.1C149.5,25.6,148,23.4,144.9,23.4z
	 M149.7,34.9h4.6c-0.8,4.4-4,7.4-9.4,7.4c-6.2,0-10.5-4.7-10.5-11.5c0-6.6,4.4-11.6,10.4-11.6c6.3,0,9.7,4.4,9.7,10.9v1.8h-15.2
	c0.2,3.9,2.4,6.2,5.6,6.2C147.4,38.1,149.2,37,149.7,34.9z M121.7,23.4c-2.8,0-4.8,1.7-5.4,4.9h10.1
	C126.3,25.6,124.8,23.4,121.7,23.4z M126.5,34.9h4.6c-0.8,4.4-4,7.4-9.4,7.4c-6.2,0-10.5-4.7-10.5-11.5c0-6.6,4.4-11.6,10.4-11.6
	c6.3,0,9.7,4.4,9.7,10.9v1.8h-15.2c0.2,3.9,2.4,6.2,5.6,6.2C124.2,38.1,126,37,126.5,34.9z M208.4,35.8c0,4.4,2.8,6.5,6.8,6.5
	c1.6,0,2.9-0.3,3.8-0.8v-4.5c-0.7,0.5-1.9,0.9-2.9,0.9c-1.7,0-2.7-0.8-2.7-2.6V23.8h5v-4.1h-5v-5.9h-5v2.5c0,0.3,0,0.6,0,0.9
	c0,1.8-1.5,2.5-2.5,2.5c-0.7,0-1,0-1,0v4.1h3.5V35.8z M97.4,35.8c0,4.4,2.8,6.5,6.8,6.5c1.6,0,2.9-0.3,3.8-0.8v-4.5
	c-0.7,0.5-1.9,0.9-2.9,0.9c-1.7,0-2.7-0.8-2.7-2.6V23.8h5v-4.1h-5v-5.9h-5v2.5c0,0.3,0,0.6,0,0.9c0,1.8-1.5,2.5-2.5,2.5
	c-0.7,0-1,0-1,0v4.1h3.5V35.8z M73.2,35.4c0.7,4.3,4.3,6.9,9.5,6.9c5,0,8.7-2.7,8.7-7.1c0-3.2-1.9-5.4-5.7-6.3l-4.7-1.1
	c-1.6-0.4-2.3-1-2.3-2c0-1.7,1.8-2.5,3.6-2.5c2.3,0,3.6,1,4.1,2.4h4.9c-0.8-4-3.7-6.5-8.9-6.5c-4.9,0-8.4,2.9-8.4,6.9
	c0,3.6,2.4,5.3,5.5,6.1l4.6,1.1c1.9,0.4,2.6,1.1,2.6,2.3c0,1.7-1.5,2.6-3.8,2.6c-2.2,0-3.9-0.9-4.4-2.8H73.2z"/>
<path class="st0" d="M45.2,44.7c-3.3,3.2-8.1,5.2-11.9,5.5c-2.7,0.3-5.5,0.3-8.2,0c-4-0.5-6.9-1.6-9.8-2.7c1.4-1.4,2.9-3.3,3.5-5
	c0.4-1,0.3-2.1-0.1-3c-3.1-6.3-1.7-13.8,3.3-18.7c3.6-3.6,8.6-5.2,13.7-4.6c3.7,0.5,7.1,2.1,9.8,4.7C51.9,27.4,51.7,38.3,45.2,44.7z
	 M49.1,16.8c-2.3-2.3-5-4-7.9-5.1C42.9,6.8,48.9,5,48.9,5s-13.8-7.2-29-4.3c-5.1,0.8-10,3.9-13.5,8c-7.7,8.9-6.7,22.4,2.3,30
	c1.4,1.2,4.5,3,4.5,3.1c-2,5.2-8.5,6.6-8.5,6.6s8.6,5.4,20.1,6.8c3.1,0.4,6.3,0.5,9.6,0.1c5.3-0.4,10.6-3.3,14.7-7.2
	C57.7,39.5,57.8,25.5,49.1,16.8z"/>
</svg>
